<?xml version="1.0" encoding="UTF-8"?><svg id="Capa_2" xmlns="http://www.w3.org/2000/svg" viewBox="0 0 390.98 76.79"><defs><style>.cls-1{fill:#818284;}.cls-2{font-family:TypoGroteskRounded, 'Typo Grotesk Rounded';font-size:15.63px;letter-spacing:.01em;}.cls-2,.cls-3{fill:#f8faf9;}</style></defs><g id="Capa_1-2"><g><text class="cls-2" transform="translate(1.7 72.81)"><tspan x="0" y="0">solo necesitas una idea</tspan></text><path class="cls-1" d="M166.4,6.23c-1.28-.69-2.68-.7-3.98,0-.67,.36-1.19,.87-1.55,1.53-.36,.65-.54,1.33-.54,2.03s.18,1.39,.54,2.02c.36,.65,.88,1.16,1.52,1.52,.64,.36,1.32,.54,2.02,.54s1.38-.18,2.02-.54c.65-.36,1.16-.87,1.52-1.52,.36-.64,.54-1.32,.54-2.02s-.19-1.39-.56-2.04c-.38-.66-.9-1.17-1.55-1.52Z"/><path class="cls-3" d="M330.84,18.76c-3.46,0-6.92-.03-10.38,0-5.58,.06-10.08,4.29-10.7,10-.57,5.24,3.16,10.36,8.45,11.53,.89,.2,1.82,.27,2.74,.27,6.65,.02,13.29-.01,19.94,.02,7.3,.04,11.77,7.78,8.11,14.09-1.69,2.93-4.33,4.58-7.71,4.63-6.99,.1-13.99,.11-20.98,0-4.91-.07-8.81-3.98-9.01-8.91-.1-2.65-.7-5.08-2.37-7.16-2.21-2.74-5.09-4.11-8.62-4.19-3.82-.09-6.71-1.85-8.37-5.28-1.66-3.43-1.28-6.8,1.03-9.84,1.83-2.41,4.36-3.54,7.37-3.62,6.18-.16,10.73-4.58,10.89-10.79,.11-4.31,2.72-7.74,6.27-8.93,1-.33,2.09-.53,3.14-.53,6.75-.05,13.49-.04,20.24-.02,4.24,.01,7.81,2.68,9.01,6.66,1.2,3.99-.31,8.18-3.83,10.53-1.53,1.02-3.22,1.54-5.07,1.54-3.39,0-6.77,0-10.16,0h0Z"/><path class="cls-1" d="M390.98,9.71h0c-.15,4.27-3.12,7.82-7.09,8.83-.78,.2-1.58,.25-2.38,.25-.21,0-.41,0-.62,.02-4.64,.26-8.87,3.75-9.92,8.49-.2,.89-.27,1.83-.27,2.74-.02,6.65,.01,13.29-.02,19.94-.04,7.3-7.77,11.77-14.09,8.11-2.93-1.69-4.58-4.33-4.63-7.71-.1-6.99-.11-13.99,0-20.98,.07-4.91,3.98-8.81,8.91-9.01,2.65-.1,5.08-.7,7.16-2.37,2.54-2.04,3.9-4.67,4.15-7.85,.02-.25,.03-.51,.04-.77,.09-3.82,1.85-6.71,5.28-8.37,1.37-.67,2.73-1,4.07-1.02h.06c.69,0,1.37,.07,2.04,.24,.07,.02,.14,.03,.21,.05,.08,.02,.15,.04,.22,.06,1.11,.33,2.2,.9,3.25,1.7,.83,.63,1.5,1.34,2.04,2.13,.05,.07,.1,.14,.14,.22,.09,.14,.18,.29,.26,.44,.75,1.35,1.13,2.89,1.17,4.59,0,.09,0,.19,.01,.28Z"/><g><path class="cls-3" d="M51.7,16.4c-3.18,0-6.08,.98-8.64,2.91-.09-.74-.4-1.38-.94-1.91-1.34-1.33-3.44-1.31-4.75,0-.64,.64-.97,1.43-.97,2.36v26.49c0,.92,.33,1.72,.98,2.37,.66,.64,1.46,.96,2.38,.96s1.69-.32,2.36-.97c.64-.64,.97-1.43,.97-2.36v-13.23c0-2.74,.86-5.11,2.55-7.05,1.7-1.92,3.68-2.86,6.06-2.86,.93,0,1.73-.34,2.35-.99,.67-.64,1.01-1.44,1.01-2.37s-.34-1.73-.99-2.35c-.64-.67-1.44-1.01-2.37-1.01Z"/><path class="cls-3" d="M84.39,21.28h0c-3.26-3.24-7.23-4.88-11.79-4.88-2.26,0-4.45,.45-6.5,1.32-1.99,.84-3.78,2.04-5.32,3.56-3.24,3.24-4.88,7.2-4.88,11.76,0,2.22,.45,4.39,1.33,6.44,.84,1.95,2.03,3.71,3.56,5.24,3.26,3.22,7.23,4.85,11.81,4.85,5.67,0,10.2-1.88,13.48-5.58,.61-.68,.9-1.49,.86-2.4-.05-.92-.42-1.7-1.12-2.33-.69-.59-1.49-.87-2.41-.82-.93,.05-1.71,.42-2.3,1.11-2,2.25-4.78,3.34-8.51,3.34-2.3,0-4.38-.71-6.18-2.1-1.52-1.18-2.61-2.65-3.24-4.39h22.74c.92,0,1.73-.34,2.39-1,.64-.64,.97-1.44,.97-2.36,0-2.25-.44-4.43-1.32-6.47-.84-1.99-2.04-3.77-3.56-5.29Zm-2.39,8.41h-18.84c.63-1.77,1.71-3.28,3.22-4.47,1.81-1.41,3.9-2.13,6.21-2.13s4.37,.72,6.18,2.13c1.52,1.2,2.6,2.71,3.23,4.48Z"/><path class="cls-3" d="M107.87,23.11c3.28,0,5.83,1.32,7.78,4.03,.53,.77,1.26,1.23,2.15,1.36,.96,.21,1.78-.02,2.51-.57,.76-.55,1.22-1.28,1.35-2.13,.05-.22,.08-.43,.08-.64,0-.67-.22-1.32-.64-1.91-3.26-4.55-7.71-6.86-13.22-6.86-4.5,0-8.38,1.64-11.54,4.88-3.18,3.22-4.79,7.17-4.79,11.73s1.61,8.48,4.79,11.7c3.16,3.22,7.05,4.86,11.54,4.86,5.51,0,9.96-2.31,13.21-6.84,.43-.57,.65-1.21,.65-1.89,0-.2-.02-.42-.07-.58-.14-.93-.6-1.67-1.34-2.18-.75-.56-1.7-.76-2.47-.58-.93,.14-1.66,.59-2.19,1.33-1.96,2.74-4.51,4.07-7.79,4.07-2.68,0-4.91-.94-6.81-2.88-1.91-1.96-2.84-4.25-2.84-6.99s.93-5.06,2.83-7.02c1.91-1.94,4.14-2.88,6.82-2.88Z"/><path class="cls-3" d="M152.06,21.28h0c-3.26-3.24-7.23-4.88-11.79-4.88-2.26,0-4.45,.45-6.5,1.32-1.99,.84-3.78,2.04-5.32,3.56-3.24,3.24-4.88,7.2-4.88,11.76,0,2.23,.44,4.4,1.32,6.44,.84,1.95,2.03,3.71,3.56,5.24,3.26,3.22,7.23,4.85,11.82,4.85,5.67,0,10.2-1.88,13.48-5.58,.62-.69,.91-1.5,.86-2.39-.04-.93-.42-1.71-1.12-2.33-.68-.59-1.49-.86-2.41-.82-.93,.05-1.7,.42-2.29,1.11-1.97,2.21-4.83,3.34-8.51,3.34-2.31,0-4.39-.71-6.18-2.1-1.52-1.18-2.61-2.65-3.24-4.39h22.74c.93,0,1.73-.34,2.39-1,.64-.64,.97-1.44,.97-2.36,0-2.24-.45-4.42-1.32-6.47-.84-1.99-2.03-3.77-3.56-5.29Zm-2.39,8.41h-18.84c.63-1.77,1.71-3.28,3.22-4.47,1.82-1.41,3.91-2.13,6.21-2.13s4.37,.72,6.17,2.13c1.52,1.2,2.6,2.7,3.23,4.48Z"/><path class="cls-3" d="M162.07,17.39c-.67,.64-1.01,1.44-1.01,2.37v26.49c0,.93,.34,1.73,1,2.36,.64,.64,1.44,.97,2.36,.97s1.72-.33,2.35-.96c.66-.64,1-1.44,1-2.37V19.76c0-.93-.34-1.72-.98-2.35-1.29-1.33-3.47-1.31-4.72-.02Z"/><path class="cls-3" d="M199.13,6.64c-.64,.64-.97,1.44-.97,2.36v10.62c-2.82-2.14-6.06-3.23-9.65-3.23-4.49,0-8.38,1.64-11.54,4.88-3.18,3.22-4.79,7.17-4.79,11.73s1.61,8.48,4.79,11.7c3.16,3.22,7.05,4.86,11.54,4.86,3.59,0,6.83-1.08,9.65-3.21,.03,.87,.35,1.62,.97,2.24,.64,.64,1.44,.97,2.36,.97s1.72-.33,2.35-.96c.66-.64,1-1.44,1-2.37V9c0-.93-.34-1.72-.99-2.35-1.29-1.33-3.46-1.32-4.73,0Zm-10.62,36.25c-2.68,0-4.91-.94-6.81-2.88-1.91-1.96-2.84-4.25-2.84-6.99s.93-5.06,2.84-7.02c1.91-1.94,4.14-2.88,6.81-2.88s4.91,.94,6.82,2.88c1.91,1.95,2.84,4.23,2.84,6.99v.03c0,2.74-.93,5.03-2.84,6.99-1.91,1.94-4.14,2.88-6.82,2.88Z"/><path class="cls-3" d="M237,21.28h0c-3.26-3.24-7.23-4.88-11.79-4.88-2.26,0-4.45,.45-6.5,1.32-1.99,.84-3.78,2.04-5.32,3.56-3.24,3.24-4.88,7.2-4.88,11.76,0,2.23,.44,4.4,1.32,6.44,.84,1.95,2.03,3.71,3.56,5.24,3.26,3.22,7.23,4.85,11.82,4.85,5.67,0,10.2-1.88,13.48-5.58,.62-.69,.91-1.5,.86-2.39-.04-.93-.42-1.71-1.12-2.33-.68-.59-1.49-.86-2.41-.82-.93,.05-1.7,.42-2.29,1.11-1.97,2.21-4.83,3.34-8.51,3.34-2.31,0-4.39-.71-6.18-2.1-1.52-1.18-2.61-2.65-3.24-4.39h22.74c.93,0,1.73-.34,2.39-1,.64-.64,.97-1.44,.97-2.36,0-2.24-.45-4.42-1.32-6.47-.84-1.99-2.03-3.77-3.56-5.29Zm-2.39,8.41h-18.84c.63-1.77,1.71-3.28,3.22-4.47,1.82-1.41,3.91-2.13,6.21-2.13s4.37,.72,6.17,2.13c1.52,1.2,2.6,2.7,3.23,4.48Z"/><path class="cls-3" d="M276.94,17.4c-.64-.66-1.43-1-2.36-1s-1.73,.34-2.35,.99c-.63,.61-.97,1.35-1,2.22-2.81-2.13-6.04-3.2-9.63-3.2-4.49,0-8.38,1.64-11.54,4.88-3.18,3.22-4.79,7.17-4.79,11.73s1.61,8.48,4.79,11.7c3.16,3.22,7.05,4.86,11.54,4.86,3.59,0,6.82-1.08,9.63-3.2,.03,.87,.37,1.63,.99,2.23,.64,.64,1.44,.97,2.36,.97s1.72-.33,2.36-.97c.64-.64,.97-1.44,.97-2.36V19.76c0-.92-.32-1.71-.96-2.35Zm-15.34,25.49c-2.68,0-4.91-.94-6.81-2.88-1.91-1.96-2.84-4.25-2.84-6.99s.93-5.06,2.83-7.02c1.91-1.94,4.14-2.88,6.82-2.88s4.91,.94,6.81,2.88c1.89,1.96,2.81,4.26,2.81,7.02s-.92,5.03-2.81,6.99c-1.91,1.94-4.13,2.88-6.81,2.88Z"/><path class="cls-3" d="M16.32,23.13c3.28,0,5.82,1.32,7.77,4.02,.53,.76,1.26,1.22,2.15,1.36,.95,.21,1.78-.02,2.51-.57,.76-.54,1.21-1.28,1.35-2.14,.05-.22,.07-.43,.07-.63,0-.67-.22-1.32-.64-1.9-3.26-4.55-7.7-6.85-13.2-6.85-4.49,0-8.37,1.64-11.53,4.88C1.61,24.53,0,28.47,0,33.03s1.61,8.48,4.79,11.69c3.16,3.22,7.04,4.85,11.53,4.85,5.5,0,9.95-2.3,13.19-6.84,.43-.57,.65-1.21,.65-1.89,0-.19-.02-.4-.06-.59-.14-.93-.6-1.66-1.34-2.17-.74-.56-1.7-.76-2.48-.58-.92,.14-1.66,.59-2.18,1.33-1.96,2.73-4.5,4.06-7.78,4.06-2.68,0-4.91-.94-6.81-2.88-1.91-1.96-2.84-4.25-2.84-6.99s.93-5.05,2.84-7.01c1.91-1.94,4.13-2.88,6.81-2.88Z"/></g></g></g></svg>