<svg width="213" height="107" viewBox="0 0 213 107" fill="none" xmlns="http://www.w3.org/2000/svg">
<path d="M10.2346 106.5C4.32923 106.5 -0.513802 101.701 0.0804442 95.8254C1.12461 85.5016 3.67994 75.3657 7.68125 65.7442C13.0548 52.823 20.9309 41.0826 30.8599 31.1931C40.7889 21.3037 52.5763 13.4589 65.5492 8.10682C78.522 2.7547 92.4263 -1.83401e-06 106.468 0C120.51 1.83401e-06 134.414 2.75471 147.387 8.10684C160.36 13.459 172.147 21.3037 182.076 31.1931C192.005 41.0826 199.881 52.8231 205.255 65.7442C209.256 75.3658 211.811 85.5016 212.856 95.8254C213.45 101.701 208.607 106.5 202.701 106.5C196.796 106.5 192.078 101.694 191.336 95.8356C190.383 88.3113 188.423 80.9314 185.497 73.8954C181.199 63.5584 174.898 54.1661 166.954 46.2545C159.011 38.343 149.581 32.0672 139.203 27.7855C128.825 23.5038 117.701 21.3 106.468 21.3C95.2346 21.3 84.1112 23.5038 73.7329 27.7855C63.3547 32.0672 53.9247 38.3429 45.9815 46.2545C38.0383 54.166 31.7374 63.5584 27.4386 73.8954C24.5125 80.9314 22.553 88.3113 21.5999 95.8356C20.8578 101.694 16.14 106.5 10.2346 106.5Z" fill="url(#paint0_linear_502_186)"/>
<defs>
<linearGradient id="paint0_linear_502_186" x1="202.783" y1="102.435" x2="13.4179" y2="102.435" gradientUnits="userSpaceOnUse">
<stop stop-color="#53B483"/>
<stop offset="0.373154" stop-color="#FDE57E"/>
<stop offset="0.808154" stop-color="#E9A23B"/>
<stop offset="1" stop-color="#F34141"/>
</linearGradient>
</defs>
</svg>
